<svg style="display: none;" xmlns="http://www.w3.org/2000/svg">
  <symbol id="save-icon">
    <path fill="currentColor" d="M.5.5h3v3h-3zm0 3h3v3h-3zm0 3h3v3h-3zm0 3h3v3h-3zm0 3h3v3h-3zm0 3h3v3h-3zm0 3h3v3h-3zm0 3h3v3h-3zm0 3h3v3h-3zm0 3h3v3h-3zm0 3h3v3h-3zm0 3h3v3h-3zm0 3h3v3h-3zm33-36v3h-3v-3zm-3 0v3h-3v-3zm-3 0v3h-3v-3zm-3 0v3h-3v-3zm-3 0v3h-3v-3zm-3 0v3h-3v-3zm-3 0v3h-3v-3zm-3 0v3h-3v-3zm-3 0v3h-3v-3zm-3 0v3h-3v-3zm30 3v3h-3v-3zm-27 3v3h-3v-3zm0-3v3h-3v-3zm0 6v3h-3v-3zm21-3v3h-3v-3zm0-3v3h-3v-3zm0 6v3h-3v-3zm-6-3v3h-3v-3zm0-3v3h-3v-3zm0 6v3h-3v-3zm6 3v3h-3v-3zm-3 0v3h-3v-3zm-3 0v3h-3v-3zm-3 0v3h-3v-3zm-3 0v3h-3v-3zm-3 0v3h-3v-3zm-3 0v3h-3v-3zm-3 0v3h-3v-3zm24 9v3h-3v-3zm-3 0v3h-3v-3zm-3 0v3h-3v-3zm-3 0v3h-3v-3zm-3 0v3h-3v-3zm-3 0v3h-3v-3zm-3 0v3h-3v-3zm-3 0v3h-3v-3zm-3 0v3h-3v-3zm24 3v3h-3v-3zm-24 0v3h-3v-3zm24 3v3h-3v-3zm-24 0v3h-3v-3zm24 3v3h-3v-3zm-24 0v3h-3v-3zm0 3v3h-3v-3zm24 0v3h-3v-3zm3 3v3h-3v-3zm-3 0v3h-3v-3zm-3 0v3h-3v-3zm-3 0v3h-3v-3zm-3 0v3h-3v-3zm-3 0v3h-3v-3zm-3 0v3h-3v-3zm-3 0v3h-3v-3zm-3 0v3h-3v-3zm-3 0v3h-3v-3zm-3 0v3h-3v-3zm33 3h-3v-3h3zm0-3h-3v-3h3zm0-3h-3v-3h3zm0-3h-3v-3h3zm0-3h-3v-3h3zm0-3h-3v-3h3zm0-3h-3v-3h3zm0-3h-3v-3h3zm0-3h-3v-3h3zm0-3h-3v-3h3zm0-3h-3v-3h3z"/>
  </symbol>

  <symbol id="heart-icon">
    <path fill="currentColor" d="M12 6H9v3h3V6ZM15 6h-3v3h3V6ZM9 9H6v3h3V9ZM9 12H6v3h3v-3ZM9 15H6v3h3v-3ZM18 6h-3v3h3V6ZM12 18H9v3h3v-3ZM15 21h-3v3h3v-3ZM18 24h-3v3h3v-3ZM27 6h3v3h-3V6ZM24 6h3v3h-3V6ZM30 9h3v3h-3V9ZM30 12h3v3h-3v-3ZM30 15h3v3h-3v-3ZM21 6h3v3h-3V6ZM27 18h3v3h-3v-3ZM24 21h3v3h-3v-3ZM21 24h3v3h-3v-3ZM21 9h-3v3h3V9ZM21 27h-3v3h3v-3Z"/>
  </symbol>
</svg>

